<?xml version='1.0' encoding='utf-8'?>
<svg xmlns="http://www.w3.org/2000/svg" version="1.1" id="Layer_1" x="0px" y="0px" viewBox="0 0 5000 204.1" style="enable-background:new 0 0 5000 204.1;"> <g transform="translate(297.134 -265.061)"> <path d="M2106.8,463c-5.6-3.4-11.7-11.2-14-17.9c-4.6-13.8-13.7-17.3-17.1-6.6c-5.8,18.2-39.2,19.6-39.2,1.6 c0-8.8,12.8-18.7,16.6-12.8c4.1,6.2,18.7,1.9,27.7-8.2c19.5-21.8,40.7-27.9,57.3-16.3c17.6,12.3,2.6,45.7-16.1,35.8 c-8.9-4.8-9-12.5-0.2-17.2c9.9-5.3,8.7-13.7-2-13.7c-27.8,0-23.3,40.1,5.4,47.8c30.6,8.2,51.7-24.4,34.2-52.8 c-7.9-12.8-5.2-28.3,7.3-41.6l7.5-8l-10.8-13.5c-23.7-29.5-20.9-54.8,6.2-54.8c3.9,0,10.9-2.5,15.5-5.5c8.3-5.5,16.1-5.4,55.6,0.6 c25.3,3.8,28.3,25.3,7.5,53l-13.6,18.1l8.9,9.3c9.6,10.1,13.2,35.1,5.7,39.8c-20,12.3,2.5,55.3,28.9,55.3 c28.8,0,39.7-39.5,13.5-48.9c-8.2-2.9-12.3,7.7-4.7,11.9c10.9,6.1,4.1,24.9-7.6,20.8c-23.8-8.2-13.6-45.3,12.4-45.3 c7.6,0,28.5,13.4,43.3,27.8c9.8,9.6,19,12.8,19,6.7c0-6.2,11.4-7.2,17.7-1.5c7.4,6.7,7,17.6-1,22.6c-8.2,5.1-22.2,0.2-36.8-13 c-13.4-12.1-17.5-12.3-17.5-0.8c0,25.9-20.3,35.5-63.2,29.8c-25.8-3.4-33.4-3.4-37.5,0c-3.9,3.3-8.6,3.4-20,0.5 c-10-2.5-18.6-2.7-26.4-0.4C2150.3,471.3,2118,469.8,2106.8,463L2106.8,463z M2213.5,451.7c9.6-3.3,16.1-16.7,8.2-16.7 c-2.7,0-8.6-12.5-12.9-27.1c-2.4-8.1-15.9,11.3-24.2,34.8c-1.2,3.3-3.8,6.2-6,6.5c-2.1,0.3,2.3,1.6,9.8,2.9 c7.5,1.3,13.8,2.7,14,2.9C2202.6,455.2,2207.6,453.8,2213.5,451.7L2213.5,451.7z M2188.5,397.5c0-24.2-6.9-33.9-16.9-23.8 c-4.6,4.6-4.3,7.5,2.2,26.5C2182.8,426.9,2188.5,425.9,2188.5,397.5z M2235.8,397.9c6.5-16.8,4.7-27.8-4.7-27.8 c-11.3,0-16.4,30.1-7.7,45.5C2225.8,419.8,2229.3,414.8,2235.8,397.9L2235.8,397.9z M2211.1,371.1c1.6-9,4.4-23.2,6.2-31.6 c7.5-35.2,2.1-58-13.9-58c-14.9,0-16.7,34.6-4.5,84.5C2205.7,393.7,2207,394.2,2211.1,371.1z M2180.3,328.8c-0.7-2.6-2.1-9-3-14.3 c-1.8-10.7-10.2-16-14.4-9.1c-2.7,4.3,1.3,17.5,8,26.5C2175,337.4,2182.1,335.1,2180.3,328.8z M2249.4,307.1 c-3.6-9.4-13.9-6-16.2,5.5c-4.1,20.4-2.6,22.4,8.1,10.7C2247.2,316.8,2250.6,310.1,2249.4,307.1z M-296.4,460.5 c-2.5-6.5,4.9-15.7,12.1-15c10.9,1,11.3-0.4,2.5-9.3c-16.9-16.9-20.6-63.8-7.5-95.1c6.9-16.6,6.8-40.3-0.2-55.2 c-7.1-15-2.3-21.8,9.5-13.5c4.3,3,11.8,5.5,16.6,5.5c26.6,0,30.7,26,8.4,53.3c-13.7,16.8-14.2,19.3-4.8,25.6 c9.7,6.4,12.8,30.3,5.3,41c-22.7,32.5,23.9,73.7,50.6,44.8c16.1-17.4,3-48.2-16.2-37.9c-7,3.7-6.9,3.9,2.1,10.4 c11,8,11.7,14.7,2,19.9c-14.1,7.5-28.8-14.7-20.3-30.6c10.5-19.6,33.6-16.9,59.9,7.2c16.8,15.3,20.2,17.2,25.8,13.7 c16.5-10.3,33.8,7.4,18.4,18.7c-11.2,8.2-21.7,4.6-42.8-14.8l-8.8-8.1l-4.1,13.7c-8.8,29.3-32.2,37.8-73.5,26.8 c-11.7-3.1-17.2-3.1-24.1,0C-292.8,465-294.7,464.8-296.4,460.5L-296.4,460.5z M-268.4,399.2c7.1-22.6,5.9-32.5-3.9-32.5 c-9.2,0-15.7,33.3-9.6,49.2C-278.2,425.4-275.5,421.9-268.4,399.2z M-261.9,321.6c6.5-9.3,7-23.1,0.7-23.1 c-5.2,0-12.5,14.1-12.5,24C-273.7,331.4-268.5,331-261.9,321.6z M4604.2,450.7c-7.2-7.2-11.6-14.9-11.6-20.5 c0-10.7-6.8-11.6-13.8-1.8c-12.1,17.1-37.5,20.8-37.4,5.5c0.1-13.5,4.1-16.4,16.3-11.8c10.5,4,11.5,3.5,27.1-11.8 c25.1-24.6,39.1-28.3,53.3-14.1c10.5,10.5,11.6,21.8,2.8,29.7c-9.8,8.9-21.1,7.4-21.1-2.9c0-5.2,1.9-8.5,4.9-8.5 c7.7,0,10.1-6.9,4.4-12.6c-6.5-6.5-23.9,0.5-25.8,10.4c-6.5,33.8,33.4,52,55.7,25.4c9.8-11.6,11-26.9,3.4-41.5 c-6.3-12.1-3.5-33.7,5.5-41.8c8.7-7.9,8.3-9.8-6.2-27.5c-19.2-23.4-16.3-48.9,5.6-48.9c5,0,12.1-2.3,15.8-5 c15-11.3,22-5.8,13.5,10.6c-5.9,11.4-6.4,24.7-1.5,43.9c11.5,45.3,10,80.1-4.3,101.2c-7.9,11.5-7.8,12.4,1.5,13.7 c5,0.7,8.1,3.8,8.8,9.1c1,7.4,0.3,7.8-10.2,5.6c-6.3-1.3-12.1-2.5-13.1-2.7c-0.9-0.2-9.8,1.6-19.8,3.8 C4627.3,465.2,4617.3,463.7,4604.2,450.7L4604.2,450.7z M4690.8,394.9c1.6-23.6-3.9-33.8-16-30c-6,1.9-7.2,4.1-5.4,9.8 c1.3,4,4.9,16.1,7.9,26.9C4684,425.2,4688.8,422.8,4690.8,394.9L4690.8,394.9z M4681.3,315.8c0-13.9-6.8-22.7-15.1-19.5 c-5.5,2.1-3.1,15.5,5.2,28.7C4677.5,334.8,4681.3,331.3,4681.3,315.8z M2046.8,402.3c-1.8-4.8-3.3-10.2-3.3-11.9 c0-5.1-6.9-3.7-9,1.9c-3.1,8.2-27.8,6.9-29.2-1.5c-1.7-10.6-2096.5-14.1-2104-3.6c-5.7,8.1-22.1,9.1-28.3,1.7 c-6.5-7.9-10.2-6.1-10.2,4.9c0,15.3-9.4,17-14.7,2.5c-1.3-3.4-3.6-5.4-5.2-4.4c-1.6,1-7.3-2.8-12.6-8.3 c-10.9-11.4-15.2-12.7-15.2-4.6c0,4.3-2,5-9.4,3c-12.4-3.3-28-3.3-37.5-0.1c-11.7,3.9-9.9-6.4,2.6-15.3c11.5-8.2,32-8,80.9,0.4 c20.5,3.6,26.1,3.5,33.5-0.5c7-3.8,10.2-3.9,15.5-0.6c8.6,5.4,2047.3,9.5,2089.7,4.2c19.2-2.4,28.4-2.3,31.6,0.4 c4.8,4,25.3,2.7,62.2-3.8c29.6-5.2,61.8,2.7,61.8,15.3c0,6-4.7,6.4-14.4,1.2c-5.2-2.8-10.5-2.8-20.1,0.1c-9.9,3-14.6,2.9-19.6-0.2 c-5.7-3.6-8.5-2-22,11.8C2051.7,413.7,2051.2,413.9,2046.8,402.3L2046.8,402.3z M2354,405c0-8.2-31.8-29.1-35.8-23.5 c-3.5,4.7-5.9,5.1-15,1.9c-10.6-3.7-19.8-3.1-31.9,2c-10.4,4.4-7-9.8,3.9-16.3c12.7-7.5,37.1-7.5,75.8-0.1 c28.9,5.5,30.3,5.5,37-0.6c6.1-5.5,8.1-5.7,15.4-1.8c9.8,5.2,2100.8,0.3,2106.5-4.9c0.5-0.5,7,0.8,14.5,2.8 c10.1,2.7,19.5,2.5,36.6-0.9c50.3-9.8,73.1-7.8,82.4,7.2c5.7,9.1,4,10-10.9,5.5c-9.6-2.9-14.8-2.9-21.6,0.2 c-7.5,3.4-10,3.2-15.2-1.5c-5.9-5.3-6.9-5-17.9,5.8c-22.2,22-29.6,24.4-29.6,9.8c0-9.3-5.7-11.4-14.4-5.3 c-11.1,7.8-19.3,6.5-23.9-3.6l-4.1-8.9l-443.7,2.1c-244.1,1.2-638.8,2.9-877.1,3.9c-744.2,3.1-777.5,3.6-781.4,11.7 c-4.4,9-19.2,9.1-27.3,0.2c-7.7-8.5-12-6-12,6.9c0,6.6-1.7,10-5.1,10C2356.3,407.7,2354,406.5,2354,405L2354,405z M2142.4,352.5 c-4.7-2-33.9-4.1-64.8-4.8s-64-2-73.4-2.9c-14.8-1.5-2102.7-3.8-2107.2-2.4c-0.9,0.3-30.1,0.9-64.8,1.3c-43,0.5-65.5,2.1-70.6,5.1 c-4.3,2.4-8.3,2.9-9.4,1.2c-3.5-5.7,1.6-12.4,14.4-19c26.1-13.4,32.1-22.6,23.8-36c-3.5-5.7-3.4-7.5,0.9-10.2 c14.2-9.2,27.9,3.8,21.6,20.5c-4.7,12.6,0.5,14,11.9,3.4c7.7-7.2,8.6-10,7.6-22.7c-0.9-11.6,11.6-16.6,20.2-8.1 c7.8,7.8,6.5,14.7-5.5,27.7c-9.9,10.8-7.5,14,6.8,9.2c22.1-7.6,26.3-12.3,24-26.8c-1.7-10.4-0.9-13.7,3.5-15.4 c8.9-3.4,15.7,5,15.7,19.5v13.2l688.5,0.2c378.7,0.1,852.8,0.1,1053.6,0l365.1-0.2l1.1-11.1c1.4-14.1,6.1-19.6,16.5-19.6 c10.1,0,14.8,9.8,6.8,14.2c-7.6,4.3-7.1,7.3,2.8,19.2c15.5,18.4,35.7,16.2,22.4-2.4c-9.4-13.2-8.9-20.1,1.9-25 c10.2-4.7,19,2.9,16.1,13.9c-0.9,3.5,2.4,9.9,8,15.6l9.6,9.6l1.1-13.2c1.3-15.1,5.7-21.8,14.2-21.8c10.1,0,14.5,8.2,9.8,18.4 c-4.9,10.8-0.3,17,24.8,33.1C2161,350.1,2163,361.1,2142.4,352.5L2142.4,352.5z M2255,350.3c0-4.9,9-13.5,20-19.1 c16.4-8.5,22.1-17.4,19.5-30.9c-2.6-13.8,2.2-17.7,17.2-14c9.1,2.3,9.8,7.4,3.1,23.2c-1.9,4.6-0.9,6,4.6,6 c9.7,0,18.2-14.1,16.9-27.9c-1-10.5-0.4-11.3,8.8-11.3c15.6,0,19,9.3,9.6,25.8c-10.4,18.2-7.2,21.7,11.7,12.5l15.6-7.6l-2.2-16.3 c-1.7-13-1.1-16.7,3.2-18.3c9-3.4,18.8,8.6,18.8,23v13l16.2-1.5c15.4-1.4,166.6-2.1,1522.8-7.2c310.6-1.2,565.9-2.8,567.3-3.6 c1.4-0.8,2.6-7.4,2.6-14.7c0-10.5,1.5-13.7,7.2-15.5c11.8-3.8,17.6,4.8,12.4,18.4c-4,10.6-3.7,11.8,5.3,19.5 c15.8,13.6,35.8,10.1,22.6-3.9c-11-11.7-8-27.1,5.3-27.1c9.1,0,10.2,1.1,10.2,10.4c0,10.8,9.7,28.9,15.4,28.9c1.8,0,3.3-5.8,3.3-13 s1.8-14.8,4.1-17.1c10.2-10.2,27,0.2,19.5,12.2c-5.7,9.2-0.8,16.5,21,31.2c22.4,15.1,26.2,22.8,9.6,19.2 c-49.8-10.8-436.6-11.5-1844.1-3.2c-354.8,2.1-519.7,5.2-538.3,10C2258.6,353,2255,352.5,2255,350.3L2255,350.3z"/> </g> </svg>