<svg xml:space="preserve" width="234.937" height="117.763" viewBox="0 0 234.937 117.763" xmlns="http://www.w3.org/2000/svg"><defs><clipPath clipPathUnits="userSpaceOnUse" id="a"><path d="M0 88.322h176.203V0H0Z"/></clipPath></defs><path d="M41.399 1.242 28.772 33.119 16.25 1.242H0l20.39 51.75h16.766l20.388-51.75Z"/><g clip-path="url(#a)" transform="matrix(1.33333 0 0 -1.33333 0 117.763)"><path d="M41.838 71.168c.621.155 1.23.258 1.824.31.594.05 1.1.078 1.514.078.206 2.484.905 4.76 2.096 6.83a17.938 17.938 0 0 0 4.657 5.318c1.914 1.475 4.101 2.613 6.56 3.415 2.456.802 5.057 1.203 7.801 1.203 2.483 0 4.838-.285 7.063-.853 2.224-.57 4.192-1.397 5.9-2.484 1.707-1.087 3.052-2.446 4.036-4.075.982-1.63 1.475-3.507 1.475-5.628 0-2.071-.35-3.87-1.048-5.395-.699-1.527-1.683-2.783-2.95-3.765-1.269-.983-2.782-1.707-4.54-2.173-1.76-.466-3.676-.7-5.745-.7-.828 0-1.824.066-2.989.195-1.164.129-2.355.272-3.57.427a60.212 60.212 0 0 1-3.532.35c-1.139.077-2.148.064-3.027-.04.568-1.656 1.345-2.937 2.33-3.842a9.67 9.67 0 0 1 3.297-2.018 14.426 14.426 0 0 1 3.804-.815c1.32-.104 2.6-.155 3.842-.155.931 0 1.941.09 3.028.27a25.37 25.37 0 0 1 3.376.817c1.165.36 2.316.788 3.454 1.28 1.138.492 2.2 1.074 3.183 1.747v-8.85c-.932-.776-2.018-1.474-3.26-2.095a28.266 28.266 0 0 0-3.882-1.591 25.642 25.642 0 0 0-4.036-.971 25.199 25.199 0 0 0-3.803-.31c-3.88 0-7.22.415-10.014 1.242-2.794.827-5.136 1.979-7.025 3.454-1.889 1.475-3.35 3.208-4.385 5.2-1.036 1.993-1.76 4.179-2.174 6.56-.414-.052-.93-.13-1.552-.233a8.305 8.305 0 0 1-1.708-.466Zm15.525.388c1.5 0 2.703-.04 3.61-.117a61.175 61.175 0 0 0 2.29-.232 94.206 94.206 0 0 1 1.63-.194 53.07 53.07 0 0 1 1.63-.156c2.431-.207 4.087.05 4.967.777.88.724 1.32 1.68 1.32 2.87 0 1.347-.66 2.369-1.98 3.068-1.319.698-2.86 1.048-4.618 1.048-2.484 0-4.529-.687-6.132-2.057-1.605-1.372-2.51-3.041-2.717-5.007M91.05 87.39h11.644v-5.277c1.292 2.43 2.975 4.075 5.045 4.929 2.07.854 4.27 1.28 6.598 1.28 2.225 0 4.243-.35 6.054-1.047 1.812-.7 3.364-1.67 4.658-2.911 1.293-1.242 2.29-2.73 2.99-4.463.697-1.735 1.046-3.662 1.046-5.784V48.579h-11.643v24.374c0 1.552-.53 2.962-1.59 4.23-1.063 1.268-2.783 1.903-5.163 1.903-1.19 0-2.278-.246-3.26-.738a7.895 7.895 0 0 1-2.523-1.98 9.44 9.44 0 0 1-1.63-2.794 8.999 8.999 0 0 1-.582-3.183V48.579H91.05ZM133.278 71.168c.62.155 1.229.258 1.824.31.594.05 1.099.078 1.514.078.206 2.484.904 4.76 2.096 6.83a17.938 17.938 0 0 0 4.657 5.318c1.914 1.475 4.1 2.613 6.559 3.415 2.457.802 5.057 1.203 7.802 1.203 2.483 0 4.837-.285 7.063-.853 2.224-.57 4.192-1.397 5.899-2.484 1.708-1.087 3.053-2.446 4.036-4.075.983-1.63 1.475-3.507 1.475-5.628 0-2.071-.35-3.87-1.047-5.395-.7-1.527-1.683-2.783-2.95-3.765-1.27-.983-2.782-1.707-4.541-2.173-1.76-.466-3.675-.7-5.744-.7-.828 0-1.824.066-2.99.195-1.163.129-2.354.272-3.57.427a60.212 60.212 0 0 1-3.531.35c-1.14.077-2.148.064-3.027-.04.568-1.656 1.345-2.937 2.328-3.842a9.684 9.684 0 0 1 3.299-2.018 14.417 14.417 0 0 1 3.804-.815c1.32-.104 2.6-.155 3.842-.155.93 0 1.94.09 3.027.27 1.087.182 2.213.454 3.377.817 1.164.36 2.315.788 3.454 1.28a18.921 18.921 0 0 1 3.183 1.747v-8.85c-.932-.776-2.018-1.474-3.261-2.095a28.254 28.254 0 0 0-3.881-1.591 25.642 25.642 0 0 0-4.036-.971 25.211 25.211 0 0 0-3.804-.31c-3.88 0-7.22.415-10.013 1.242-2.794.827-5.136 1.979-7.025 3.454-1.89 1.475-3.351 3.208-4.385 5.2-1.036 1.993-1.76 4.179-2.174 6.56a40.64 40.64 0 0 1-1.553-.233 8.305 8.305 0 0 1-1.708-.466Zm15.525.388c1.5 0 2.703-.04 3.609-.117a61.175 61.175 0 0 0 2.29-.232 94.206 94.206 0 0 1 1.63-.194 53.07 53.07 0 0 1 1.63-.156c2.432-.207 4.088.05 4.968.777.878.724 1.318 1.68 1.318 2.87 0 1.347-.659 2.369-1.979 3.068-1.319.698-2.86 1.048-4.619 1.048-2.483 0-4.528-.687-6.13-2.057-1.606-1.372-2.512-3.041-2.718-5.007M50.76 20.317c-.7-4.844-5.894-1.954-11.559-2.227-.254 5.209 10.621 7.814 11.56 2.227m8.942.587c-.814 14.977-29.785 11.7-29.62-2.814-.639 0-1.568-.058-2.498-.292v-5.862c.756.293 1.86.469 2.44.527C30.228 1.295 48.92-4.209 58.89 3.789v6.682c-5.715-3.562-16.664-5.796-19.69 2.051 7.953-.188 20.266-3.32 20.502 8.382M71.82 9.943c.374 4.795 8.971 1.582 11.036 1.407.642-4.335-10.69-5.865-11.036-1.407m19.69 7.034c1.91 17.594-27.69 17.88-27.647 3.282h8.713c.655 5.276 11.808 3.77 10.28-2.755-.755-.468-4.066.938-8.596.938-16.469.231-13.998-19.244 0-18.404 3.31 0 6.388.878 8.537 3.868V.74h8.712v10.141c.988 0 1.918.059 3.08.352v6.096c-1.337-.235-2.092-.352-3.08-.352m46.953 3.34c-.7-4.844-5.895-1.954-11.559-2.227-.254 5.209 10.621 7.814 11.56 2.227m8.942.587c-.814 14.977-29.786 11.7-29.62-2.814-.64 0-1.569-.058-2.498-.292v-5.862c.755.293 1.858.469 2.44.527.205-11.168 18.895-16.672 28.866-8.674v6.682c-5.715-3.562-16.665-5.796-19.69 2.051 7.952-.188 20.265-3.319 20.502 8.382m23.831 2.169v7.678c-3.443-.199-7.78.957-10.339-4.806l.058 4.102h-8.712V.74h8.712c.911 9.324-4.214 23.838 10.281 22.333M18.908 21.805h6.447v7.677h-6.447v9.822c-3.746-.794-3.746-.794-8.654-1.925v-7.897H4.968v-7.677h5.227V11.078C10.195 5.627 12.635 0 25.297 0v7.678c-8.716-.127-5.965 8.762-6.39 14.126M108.673 21.805h6.447v7.677h-6.447v9.822c-3.746-.794-3.746-.794-8.654-1.925v-7.897h-5.286v-7.677h5.227V11.078C99.96 5.627 102.4 0 115.062 0v7.678c-8.716-.127-5.965 8.762-6.39 14.126"/></g></svg>